<svg version="1.2" xmlns="http://www.w3.org/2000/svg" viewBox="0 0 2490 2490" width="2490" height="2490">
	<defs>
		<linearGradient id="g1" x2="1" gradientUnits="userSpaceOnUse" gradientTransform="matrix(208.466,628.159,-1367.806,457.946,1498.423,1114.63)">
			<stop offset="0" stop-color="#00dcac"/>
			<stop offset="1" stop-color="#027984"/>
		</linearGradient>
		<linearGradient id="g2" x2="1" gradientUnits="userSpaceOnUse" gradientTransform="matrix(393.651,0,0,875.12,471.478,1483.051)">
			<stop offset="0" stop-color="#ffffff"/>
			<stop offset="1" stop-color="#c3d6f5"/>
		</linearGradient>
		<linearGradient id="g3" x2="1" gradientUnits="userSpaceOnUse" gradientTransform="matrix(249.704,538.768,-627.402,293.355,735.767,1490.801)">
			<stop offset="0" stop-color="#00dcac"/>
			<stop offset="1" stop-color="#027984"/>
		</linearGradient>
		<linearGradient id="g4" x2="1" gradientUnits="userSpaceOnUse" gradientTransform="matrix(443.523,0,0,527.908,317.024,1739.012)">
			<stop offset="0" stop-color="#ffffff"/>
			<stop offset="1" stop-color="#c3d6f5"/>
		</linearGradient>
		<linearGradient id="g5" x2="1" gradientUnits="userSpaceOnUse" gradientTransform="matrix(-1034.12,2179.375,-3105.423,-1486.563,3122.52,1029.458)">
			<stop offset="0" stop-color="#796393"/>
			<stop offset="1" stop-color="#361d52"/>
		</linearGradient>
		<linearGradient id="g6" x2="1" gradientUnits="userSpaceOnUse" gradientTransform="matrix(1098.31,1641.167,-2180.657,1472.255,1746.915,200.807)">
			<stop offset="0" stop-color="#fbb48f"/>
			<stop offset="1" stop-color="#d14272"/>
		</linearGradient>
		<linearGradient id="g7" x2="1" gradientUnits="userSpaceOnUse" gradientTransform="matrix(-427.62,953.959,-2080.62,-940.904,2501.687,1527.501)">
			<stop offset="0" stop-color="#ffffff"/>
			<stop offset="1" stop-color="#c3d6f5"/>
		</linearGradient>
		<linearGradient id="g8" x2="1" gradientUnits="userSpaceOnUse" gradientTransform="matrix(-929.469,1095.685,-502.6,-430.126,1634.961,1117.837)">
			<stop offset="0" stop-color="#ab5188"/>
			<stop offset="1" stop-color="#3e1154"/>
		</linearGradient>
		<linearGradient id="g9" x2="1" gradientUnits="userSpaceOnUse" gradientTransform="matrix(-420.34,622.181,-362.211,-246.871,1736.451,1369.251)">
			<stop offset="0" stop-color="#ab5188"/>
			<stop offset="1" stop-color="#3e1154"/>
		</linearGradient>
		<linearGradient id="g10" x2="1" gradientUnits="userSpaceOnUse" gradientTransform="matrix(-441.124,388.816,-3871.095,-4430.711,2265.811,2228.745)">
			<stop offset="0" stop-color="#ab5188"/>
			<stop offset="1" stop-color="#3e1154"/>
		</linearGradient>
		<linearGradient id="g11" x2="1" gradientUnits="userSpaceOnUse" gradientTransform="matrix(13.814,235.868,-36.178,2.138,1295.754,968.27)">
			<stop offset="0" stop-color="#796393"/>
			<stop offset="1" stop-color="#361d52"/>
		</linearGradient>
		<linearGradient id="g12" x2="1" gradientUnits="userSpaceOnUse" gradientTransform="matrix(13.837,213.099,-32.686,2.141,1295.5,1808.328)">
			<stop offset="0" stop-color="#796393"/>
			<stop offset="1" stop-color="#361d52"/>
		</linearGradient>
		<linearGradient id="g13" x2="1" gradientUnits="userSpaceOnUse" gradientTransform="matrix(98.691,0,0,280.027,749.221,2104.414)">
			<stop offset="0" stop-color="#767aa4"/>
			<stop offset="1" stop-color="#4b4f69"/>
		</linearGradient>
		<linearGradient id="g14" x2="1" gradientUnits="userSpaceOnUse" gradientTransform="matrix(113.112,0,0,280.027,786.836,2104.414)">
			<stop offset="0" stop-color="#767aa4"/>
			<stop offset="1" stop-color="#4b4f69"/>
		</linearGradient>
		<linearGradient id="g15" x2="1" gradientUnits="userSpaceOnUse" gradientTransform="matrix(279.837,379.886,-483.709,359.468,844.206,1822.713)">
			<stop offset="0" stop-color="#60cdf9"/>
			<stop offset="1" stop-color="#565adb"/>
		</linearGradient>
		<linearGradient id="g16" x2="1" gradientUnits="userSpaceOnUse" gradientTransform="matrix(110.385,0,0,68.341,831.339,1828.832)">
			<stop offset="0" stop-color="#00dcac"/>
			<stop offset="1" stop-color="#027984"/>
		</linearGradient>
		<linearGradient id="g17" x2="1" gradientUnits="userSpaceOnUse" gradientTransform="matrix(15.623,0,0,34.448,927.095,1828.832)">
			<stop offset="0" stop-color="#00dcac"/>
			<stop offset="1" stop-color="#027984"/>
		</linearGradient>
		<linearGradient id="g18" x2="1" gradientUnits="userSpaceOnUse" gradientTransform="matrix(53.777,0,0,76.338,776.206,1873.617)">
			<stop offset="0" stop-color="#595b68"/>
			<stop offset="1" stop-color="#202d3b"/>
		</linearGradient>
		<linearGradient id="g19" x2="1" gradientUnits="userSpaceOnUse" gradientTransform="matrix(53.293,0,0,17.78,843.101,2384.442)">
			<stop offset="0" stop-color="#595b68"/>
			<stop offset="1" stop-color="#202d3b"/>
		</linearGradient>
		<linearGradient id="g20" x2="1" gradientUnits="userSpaceOnUse" gradientTransform="matrix(53.293,0,0,17.78,745.743,2384.442)">
			<stop offset="0" stop-color="#595b68"/>
			<stop offset="1" stop-color="#202d3b"/>
		</linearGradient>
		<linearGradient id="g21" x2="1" gradientUnits="userSpaceOnUse" gradientTransform="matrix(0,379.769,-1535.856,0,2745.628,1865.487)">
			<stop offset="0" stop-color="#00dcac"/>
			<stop offset="1" stop-color="#027984"/>
		</linearGradient>
		<linearGradient id="g22" x2="1" gradientUnits="userSpaceOnUse" gradientTransform="matrix(25.582,0,0,315.835,2054.506,1965.296)">
			<stop offset="0" stop-color="#595b68"/>
			<stop offset="1" stop-color="#202d3b"/>
		</linearGradient>
		<linearGradient id="g23" x2="1" gradientUnits="userSpaceOnUse" gradientTransform="matrix(-51.444,244.577,-563.63,-119.602,2457.135,2052.645)">
			<stop offset="0" stop-color="#00dcac"/>
			<stop offset="1" stop-color="#027984"/>
		</linearGradient>
		<linearGradient id="g24" x2="1" gradientUnits="userSpaceOnUse" gradientTransform="matrix(84.47,0,0,233.531,2072.613,2047.6)">
			<stop offset="0" stop-color="#595b68"/>
			<stop offset="1" stop-color="#202d3b"/>
		</linearGradient>
		<linearGradient id="g25" x2="1" gradientUnits="userSpaceOnUse" gradientTransform="matrix(93.563,226.24,-394.721,164.684,2135.875,1967.926)">
			<stop offset="0" stop-color="#00dcac"/>
			<stop offset="1" stop-color="#027984"/>
		</linearGradient>
		<linearGradient id="g26" x2="1" gradientUnits="userSpaceOnUse" gradientTransform="matrix(90.129,0,0,184.549,1967.296,2096.582)">
			<stop offset="0" stop-color="#595b68"/>
			<stop offset="1" stop-color="#202d3b"/>
		</linearGradient>
		<linearGradient id="g27" x2="1" gradientUnits="userSpaceOnUse" gradientTransform="matrix(263.032,233.709,-179.7,204.035,1977.965,2128.71)">
			<stop offset="0" stop-color="#fbb48f"/>
			<stop offset="1" stop-color="#d14272"/>
		</linearGradient>
		<linearGradient id="g28" x2="1" gradientUnits="userSpaceOnUse" gradientTransform="matrix(174.968,0,0,9.763,1972.784,2239.959)">
			<stop offset="0" stop-color="#595b68"/>
			<stop offset="1" stop-color="#202d3b"/>
		</linearGradient>
		<linearGradient id="g29" x2="1" gradientUnits="userSpaceOnUse" gradientTransform="matrix(184.051,331.666,-122.479,68.568,1329,2050.716)">
			<stop offset="0" stop-color="#00dcac"/>
			<stop offset="1" stop-color="#027984"/>
		</linearGradient>
		<linearGradient id="g30" x2="1" gradientUnits="userSpaceOnUse" gradientTransform="matrix(261.868,0,0,172.135,1372.551,390.99)">
			<stop offset="0" stop-color="#fbb48f"/>
			<stop offset="1" stop-color="#d14272"/>
		</linearGradient>
		<linearGradient id="g31" x2="1" gradientUnits="userSpaceOnUse" gradientTransform="matrix(184.909,0,0,172.135,1372.551,390.99)">
			<stop offset="0" stop-color="#fbb48f"/>
			<stop offset="1" stop-color="#d14272"/>
		</linearGradient>
		<linearGradient id="g32" x2="1" gradientUnits="userSpaceOnUse" gradientTransform="matrix(53.434,0,0,58.888,1490.496,504.237)">
			<stop offset="0" stop-color="#fbb48f"/>
			<stop offset="1" stop-color="#d14272"/>
		</linearGradient>
		<linearGradient id="g33" x2="1" gradientUnits="userSpaceOnUse" gradientTransform="matrix(59.133,0,0,59.394,202.504,1481.273)">
			<stop offset="0" stop-color="#fbb48f"/>
			<stop offset="1" stop-color="#d14272"/>
		</linearGradient>
		<linearGradient id="g34" x2="1" gradientUnits="userSpaceOnUse" gradientTransform="matrix(74.82,0,0,75.151,261.21,846.334)">
			<stop offset="0" stop-color="#fbb48f"/>
			<stop offset="1" stop-color="#d14272"/>
		</linearGradient>
		<linearGradient id="g35" x2="1" gradientUnits="userSpaceOnUse" gradientTransform="matrix(59.133,0,0,59.394,1478.159,47)">
			<stop offset="0" stop-color="#fbb48f"/>
			<stop offset="1" stop-color="#d14272"/>
		</linearGradient>
		<linearGradient id="g36" x2="1" gradientUnits="userSpaceOnUse" gradientTransform="matrix(59.133,0,0,59.395,567.115,77.043)">
			<stop offset="0" stop-color="#fbb48f"/>
			<stop offset="1" stop-color="#d14272"/>
		</linearGradient>
		<linearGradient id="g37" x2="1" gradientUnits="userSpaceOnUse" gradientTransform="matrix(71.112,0,0,71.427,2151.094,1576.629)">
			<stop offset="0" stop-color="#fbb48f"/>
			<stop offset="1" stop-color="#d14272"/>
		</linearGradient>
		<linearGradient id="g38" x2="1" gradientUnits="userSpaceOnUse" gradientTransform="matrix(77.321,0,0,77.663,2103.746,884.397)">
			<stop offset="0" stop-color="#fbb48f"/>
			<stop offset="1" stop-color="#d14272"/>
		</linearGradient>
		<linearGradient id="g39" x2="1" gradientUnits="userSpaceOnUse" gradientTransform="matrix(15.739,0,0,71.571,542.97,1138.392)">
			<stop offset="0" stop-color="#ab5188"/>
			<stop offset="1" stop-color="#3e1154"/>
		</linearGradient>
		<linearGradient id="g40" x2="1" gradientUnits="userSpaceOnUse" gradientTransform="matrix(71.265,0,0,15.81,515.214,1166.27)">
			<stop offset="0" stop-color="#ab5188"/>
			<stop offset="1" stop-color="#3e1154"/>
		</linearGradient>
		<linearGradient id="g41" x2="1" gradientUnits="userSpaceOnUse" gradientTransform="matrix(12.117,0,0,55.104,1959.283,274.172)">
			<stop offset="0" stop-color="#ab5188"/>
			<stop offset="1" stop-color="#3e1154"/>
		</linearGradient>
		<linearGradient id="g42" x2="1" gradientUnits="userSpaceOnUse" gradientTransform="matrix(54.868,0,0,12.172,1937.913,295.635)">
			<stop offset="0" stop-color="#ab5188"/>
			<stop offset="1" stop-color="#3e1154"/>
		</linearGradient>
		<linearGradient id="g43" x2="1" gradientUnits="userSpaceOnUse" gradientTransform="matrix(12.117,0,0,55.103,2340.65,1170.458)">
			<stop offset="0" stop-color="#ab5188"/>
			<stop offset="1" stop-color="#3e1154"/>
		</linearGradient>
		<linearGradient id="g44" x2="1" gradientUnits="userSpaceOnUse" gradientTransform="matrix(54.868,0,0,12.172,2319.281,1191.922)">
			<stop offset="0" stop-color="#ab5188"/>
			<stop offset="1" stop-color="#3e1154"/>
		</linearGradient>
		<linearGradient id="g45" x2="1" gradientUnits="userSpaceOnUse" gradientTransform="matrix(12.117,0,0,55.103,408.888,455.682)">
			<stop offset="0" stop-color="#ab5188"/>
			<stop offset="1" stop-color="#3e1154"/>
		</linearGradient>
		<linearGradient id="g46" x2="1" gradientUnits="userSpaceOnUse" gradientTransform="matrix(54.868,0,0,12.172,387.518,477.146)">
			<stop offset="0" stop-color="#ab5188"/>
			<stop offset="1" stop-color="#3e1154"/>
		</linearGradient>
		<linearGradient id="g47" x2="1" gradientUnits="userSpaceOnUse" gradientTransform="matrix(12.117,0,0,55.104,121.37,2158.073)">
			<stop offset="0" stop-color="#ab5188"/>
			<stop offset="1" stop-color="#3e1154"/>
		</linearGradient>
		<linearGradient id="g48" x2="1" gradientUnits="userSpaceOnUse" gradientTransform="matrix(54.867,0,0,12.172,100,2179.537)">
			<stop offset="0" stop-color="#ab5188"/>
			<stop offset="1" stop-color="#3e1154"/>
		</linearGradient>
		<linearGradient id="g49" x2="1" gradientUnits="userSpaceOnUse" gradientTransform="matrix(14.902,0,0,67.767,2348.804,453.531)">
			<stop offset="0" stop-color="#ab5188"/>
			<stop offset="1" stop-color="#3e1154"/>
		</linearGradient>
		<linearGradient id="g50" x2="1" gradientUnits="userSpaceOnUse" gradientTransform="matrix(67.477,0,0,14.969,2322.523,479.927)">
			<stop offset="0" stop-color="#ab5188"/>
			<stop offset="1" stop-color="#3e1154"/>
		</linearGradient>
		<linearGradient id="g51" x2="1" gradientUnits="userSpaceOnUse" gradientTransform="matrix(12.117,0,0,55.103,1981.717,1836.414)">
			<stop offset="0" stop-color="#ab5188"/>
			<stop offset="1" stop-color="#3e1154"/>
		</linearGradient>
		<linearGradient id="g52" x2="1" gradientUnits="userSpaceOnUse" gradientTransform="matrix(54.868,0,0,12.172,1960.347,1857.877)">
			<stop offset="0" stop-color="#ab5188"/>
			<stop offset="1" stop-color="#3e1154"/>
		</linearGradient>
		<linearGradient id="g53" x2="1" gradientUnits="userSpaceOnUse" gradientTransform="matrix(15.012,0,0,68.265,1021.817,222.478)">
			<stop offset="0" stop-color="#ab5188"/>
			<stop offset="1" stop-color="#3e1154"/>
		</linearGradient>
		<linearGradient id="g54" x2="1" gradientUnits="userSpaceOnUse" gradientTransform="matrix(67.973,0,0,15.079,995.343,249.068)">
			<stop offset="0" stop-color="#ab5188"/>
			<stop offset="1" stop-color="#3e1154"/>
		</linearGradient>
	</defs>
	<style>
		.s0 { opacity: .1;fill: #000000 } 
		.s1 { fill: url(#g1) } 
		.s2 { fill: url(#g2) } 
		.s3 { fill: url(#g3) } 
		.s4 { fill: url(#g4) } 
		.s5 { fill: url(#g5) } 
		.s6 { fill: url(#g6) } 
		.s7 { fill: #181a44 } 
		.s8 { fill: url(#g7) } 
		.s9 { fill: url(#g8) } 
		.s10 { fill: url(#g9) } 
		.s11 { fill: url(#g10) } 
		.s12 { fill: url(#g11) } 
		.s13 { fill: url(#g12) } 
		.s14 { fill: #eda27c } 
		.s15 { fill: url(#g13) } 
		.s16 { fill: url(#g14) } 
		.s17 { fill: url(#g15) } 
		.s18 { fill: #f7c4a3 } 
		.s19 { fill: url(#g16) } 
		.s20 { fill: url(#g17) } 
		.s21 { fill: #f8c4a3 } 
		.s22 { fill: url(#g18) } 
		.s23 { fill: url(#g19) } 
		.s24 { fill: url(#g20) } 
		.s25 { fill: url(#g21) } 
		.s26 { fill: url(#g22) } 
		.s27 { fill: url(#g23) } 
		.s28 { fill: url(#g24) } 
		.s29 { fill: url(#g25) } 
		.s30 { fill: url(#g26) } 
		.s31 { fill: url(#g27) } 
		.s32 { fill: url(#g28) } 
		.s33 { fill: url(#g29) } 
		.s34 { fill: url(#g30) } 
		.s35 { fill: url(#g31) } 
		.s36 { fill: url(#g32) } 
		.s37 { fill: url(#g33) } 
		.s38 { fill: #ffffff } 
		.s39 { fill: url(#g34) } 
		.s40 { fill: url(#g35) } 
		.s41 { fill: url(#g36) } 
		.s42 { fill: url(#g37) } 
		.s43 { fill: url(#g38) } 
		.s44 { fill: url(#g39) } 
		.s45 { fill: url(#g40) } 
		.s46 { fill: url(#g41) } 
		.s47 { fill: url(#g42) } 
		.s48 { fill: url(#g43) } 
		.s49 { fill: url(#g44) } 
		.s50 { fill: url(#g45) } 
		.s51 { fill: url(#g46) } 
		.s52 { fill: url(#g47) } 
		.s53 { fill: url(#g48) } 
		.s54 { fill: url(#g49) } 
		.s55 { fill: url(#g50) } 
		.s56 { fill: url(#g51) } 
		.s57 { fill: url(#g52) } 
		.s58 { fill: url(#g53) } 
		.s59 { fill: url(#g54) } 
	</style>
	<g id="Layer 1">
		<g id="Object">
			<g id="&lt;Group&gt;">
				<path id="&lt;Path&gt;" fill-rule="evenodd" class="s0" d="m1318.3 2442c-553.5 0-1001-27.2-1001-61 0-33.7 447.5-60.9 1001-60.9 553.6 0 1001.1 27.2 1001.1 60.9 0 33.8-447.5 61-1001.1 61z"/>
				<g id="&lt;Group&gt;">
					<g id="&lt;Group&gt;">
						<path id="&lt;Path&gt;" fill-rule="evenodd" class="s1" d="m473.7 1727.8q-1.3 9.2-2.2 18.4c-4.2 41.6-3.5 83.8 1.6 125.8q1.3 10.3 2.9 20.6c6.3 40.1 16.7 79.9 30.8 118.4q3.7 10.4 7.9 20.6c17.3 43.2 39.3 84.6 65.3 123.1q6.5 9.6 13.4 19c34.5 47.3 75.3 89.6 121.2 124.3q12.3 9.4 25.1 17.9 14.6 9.9 29.9 18.7c12.9 7.4 33.4 20.2 51.9 23 6 0.9 11.8 0.8 17-1q1.7-0.5 3.3-1.3c29.1-14.1 25.5-82.9 24.8-110.7q-0.3-14.9-1.5-29.7c-0.9-11.9-2.1-23.8-3.7-35.7-5-36.5-13.2-72.4-23.8-107.7q-3.7-12.5-7.8-25-0.2-0.4-0.3-0.9c-12.1-36.3-26.6-72-42.4-107.1q-4.5-9.9-9.1-19.7c-10.3-21.9-21-43.6-32-65q-5.8-11.5-11.7-22.8-4.5-8.6-8.9-17.1c-17-32.7-34-65.3-49.7-98.6q-4.1-8.8-8.1-17.7-6.2-13.7-12.1-27.7c-9.2-21.9-17.7-44.2-25.3-66.7q-3.4-10.2-6.6-20.5-2-6.8-3.9-13.5c-2.8-9.8-15.9-49.1-20.8-76.9-0.4-2-1.2-3.7-2.3-5.1-4.2-5.1-12.4-5.9-17.3-0.1q0 0-0.1 0.1c-27.2 32.3-49 67-65.8 103.4q-3.9 8.3-7.3 16.7c-16.1 38.8-26.7 79.2-32.4 120.5z"/>
						<path id="&lt;Path&gt;" fill-rule="evenodd" class="s2" d="m583.1 1792.6q-54.7-32.4-109.4-64.8-1.3 9.2-2.2 18.4 58.6 34.7 117.2 69.4c11.2 43.3 25.8 85.8 42.8 127.3q-9.5-3.6-19.1-7.3-20.3-8-40.3-16.5c-33.6-14.4-66.6-30.1-99-47.1q1.3 10.3 2.9 20.6 11.6 5.9 23.3 11.7c28.3 13.9 57.2 26.9 86.4 38.9q21.5 8.8 43.4 16.9c3.5 1.4 7.4 3.2 11.4 4.1 15.2 35 31.9 69.2 49.8 102.7q0.8 1.3 1.5 2.7-93.1-27.6-185-58.6 3.7 10.4 7.9 20.6c62.5 20.9 125.5 40.6 188.8 59.1 17.7 31.6 36.3 62.8 53.4 94.7-58.6-12.4-117.6-22.6-176.9-30.7q6.5 9.6 13.4 19c58.2 8.3 116.2 18.7 173.7 31.1 10.6 20.8 20.3 42 28.5 64 3.8 10 7.2 20.2 10.4 30.4-6.5 0.4-13.1 0.1-19.5 0.2q-36 0.2-71.9-1.4 12.3 9.4 25.1 17.9 30 0.8 60 0.3c3.9-0.1 7.7-0.2 11.2-0.6 3.9 13.9 7.4 27.9 10.6 42 6 0.9 11.8 0.8 17-1-3.5-16.3-7.6-32.6-12.2-48.7 1.1-1.4 2.1-3 3-4.9 6.7-14.5 12.1-29.7 18.1-44.4q8.9-21.9 17.7-43.7c-0.9-11.9-2.1-23.8-3.7-35.7q-13.5 33.2-27 66.4-7.8 19.1-15.6 38.2c-4.4-13.4-9.3-26.7-14.8-39.9-6.2-14.9-13.1-29.6-20.3-44q26.9-64.2 53.9-128.4-3.7-12.5-7.8-25-28.1 66.9-56.3 133.8c-17.2-32.5-36.1-64.1-54.2-96.1q32.5-73.5 67.8-145.7-4.5-9.9-9.1-19.7-35.9 72.8-69 146.9-5.5-10-10.7-20c-15-28.6-29-57.7-41.9-87.3 1.2-1.6 2.2-3.4 3.2-5.2 22.9-42 47.7-82.8 74.7-122.2q-4.5-8.6-8.9-17.1-17.9 25.7-34.6 52.3-22.4 35.7-42.6 72.8c-12.6-30.5-23.9-61.5-33.5-93.1q-4.7-15.5-8.8-31.2 34.2-50.3 69.8-99.4-4.1-8.8-8.1-17.7-34.3 47-67.2 95c-9.2-39.4-15.4-79.7-18.2-120.1 1-0.6 1.9-1.4 2.6-2.3q22.7-33.5 45.4-67-3.4-10.2-6.6-20.5-21.3 31.4-42.7 62.9c-1.5-53.3 3.2-106.6 15.7-158.4-4.2-5.1-12.4-5.9-17.3-0.1q0 0-0.1 0.1c-11.6 50.2-16.4 101.9-15.4 153.5q-25.9-24.4-50.4-50.1-3.9 8.3-7.3 16.7c18.9 19.7 38.5 38.8 58.6 57.3 2.3 43.3 8.8 86 18.4 128z"/>
					</g>
					<g id="&lt;Group&gt;">
						<path id="&lt;Path&gt;" fill-rule="evenodd" class="s3" d="m329.9 1939.7q1.8 6.6 3.8 13.2c9.2 29.5 21.9 58.1 37.6 85.2q3.8 6.6 7.9 13.1c16 25.5 34.6 49.6 55.3 71.7q5.6 5.9 11.3 11.7c24.4 24.3 51.3 46.1 80.2 64.7q7.2 4.7 14.6 9.1c37.2 22.1 77.3 38.9 118.6 49.2q11 2.7 22.2 4.8 12.9 2.5 25.8 4c10.9 1.3 28.6 4 42 0.5 4.4-1.1 8.3-2.9 11.3-5.6q1-0.9 1.9-1.9c15.7-18.1-6.7-63.9-15.2-82.6q-4.6-10.1-9.6-19.8-6.1-11.9-12.9-23.2c-14-23.4-30-45.5-47.4-66.5q-6.2-7.4-12.6-14.6-0.2-0.3-0.4-0.6c-18.8-21.2-39-41.3-59.9-60.5q-5.9-5.4-11.9-10.8c-13.4-11.9-27-23.5-40.6-34.9q-7.4-6.1-14.7-12.1-5.5-4.5-11-9c-21-17.3-42-34.6-62.3-52.7q-5.4-4.7-10.7-9.6-8.2-7.5-16.3-15.3c-12.6-12.3-24.8-24.9-36.5-38.1q-5.3-5.9-10.4-12-3.4-4-6.6-8.1c-4.8-5.8-25.1-28.7-36.5-46.2-0.8-1.3-1.9-2.2-3-2.8-4.3-2.3-10.2-0.4-11.8 4.9q0 0.1-0.1 0.2c-9.1 29.9-13.9 59.9-14.8 89.6q-0.2 6.8-0.2 13.5c0.3 31.1 4.8 61.8 12.9 91.5z"/>
						<path id="&lt;Path&gt;" fill-rule="evenodd" class="s4" d="m423.2 1951.8q-46.7-6-93.3-12.1 1.8 6.6 3.8 13.2 50 6.5 100 13c20.2 26.2 42.4 50.9 66 74.1q-7.5 0.4-15.1 0.6-16.1 0.6-32.3 0.6c-27 0-54.1-1-81-3.1q3.8 6.6 7.9 13.1 9.6 0.7 19.3 1.2 35 1.8 70.1 1.2 17.2-0.2 34.4-1.1c2.8-0.1 6 0 9-0.6 20.5 19.4 41.8 37.8 63.7 55.4q0.9 0.7 1.8 1.4-71.4 8.4-143 14.2 5.6 5.9 11.3 11.7 73-6.1 145.7-14.9c21.2 16.3 42.9 32.1 63.8 48.8-43.4 8.7-86.6 19-129.3 30.8q7.2 4.7 14.6 9.1c42.1-11.4 84.5-21.3 127.3-29.7 13.2 11.1 26 22.7 38 35.3 5.4 5.7 10.7 11.6 15.8 17.6-4.3 2.2-8.8 4-13.2 5.9q-24.4 10.6-49.3 20.1 11 2.7 22.2 4.8 20.7-8.2 41-17.4c2.6-1.2 5.2-2.3 7.4-3.6 6.7 8.3 13.2 16.8 19.4 25.5 4.4-1.1 8.3-2.9 11.3-5.6-7.1-10.1-14.6-20-22.4-29.6 0.3-1.3 0.6-2.7 0.6-4.3 0.4-11.8-0.4-23.7-0.6-35.5q-0.2-17.5-0.5-34.9-6.1-11.9-12.9-23.2 0.4 26.5 0.8 53.1 0.3 15.3 0.5 30.5c-6.9-7.8-14.1-15.5-21.6-22.8-8.6-8.4-17.5-16.3-26.7-24.1q-0.2-51.6-0.4-103.2-6.2-7.4-12.6-14.6 0.3 53.7 0.5 107.5c-21.2-17.1-43.2-33.1-64.8-49.6q0.8-59.5 4-119-5.9-5.4-11.9-10.8-3.4 60.1-4.4 120.2-6.7-5.2-13.2-10.5c-18.4-15.1-36.4-30.8-53.8-47.2 0.4-1.4 0.5-2.9 0.7-4.5 3.4-35.2 8.5-70.3 15.4-105q-5.5-4.5-11-9-4.7 22.7-8.4 45.7-4.9 30.9-7.9 62c-17.4-17.1-34.1-34.9-49.8-53.6q-7.6-9.2-15-18.7 8.7-44.2 18.8-88.1-5.4-4.7-10.7-9.6-9.7 42-18.2 84.3c-17.7-24.2-33.6-49.8-47.2-76.5 0.5-0.7 0.9-1.5 1-2.3q5.8-29.4 11.6-58.9-5.3-5.9-10.4-12-5.5 27.6-10.9 55.3c-16.5-35.8-28.7-73.5-35.2-112.4-4.3-2.3-10.2-0.4-11.8 4.9q0 0.1-0.1 0.2c6.7 37.5 18.4 74.1 34.1 109q-24.8-9.1-48.9-19.4-0.2 6.8-0.2 13.5 28 11.8 56.6 21.9c14.1 28.8 30.8 56 49.6 81.7z"/>
					</g>
				</g>
				<g id="&lt;Group&gt;">
					<path id="&lt;Path&gt;" fill-rule="evenodd" class="s5" d="m794.2 2369.3c-41.4 0-74.9-33.7-74.9-75.3v-1516.4c0-41.6 33.5-75.3 74.9-75.3h1009.7c41.4 0 75 33.7 75 75.3v1516.4c0 41.6-33.6 75.3-75 75.3z"/>
					<path id="&lt;Path&gt;" fill-rule="evenodd" class="s6" d="m1799.9 864.5v1342.6h-1001.6v-1342.6z"/>
					<path id="&lt;Path&gt;" fill-rule="evenodd" class="s7" d="m1377.3 2292.5c0 15.2-12.3 27.6-27.5 27.6h-86.4c-15.1 0-27.4-12.4-27.4-27.6 0-15.3 12.3-27.6 27.4-27.6h86.4c15.2 0 27.5 12.3 27.5 27.6z"/>
				</g>
				<g id="&lt;Group&gt;">
					<g id="&lt;Group&gt;">
						<path id="&lt;Path&gt;" fill-rule="evenodd" class="s8" d="m1503.9 1304.6v-225.4h-415.4v225.4c0 83.3 47.9 155.2 117.3 189.1 15.7 7.7 25.9 23.5 25.9 41.1v2.8c0 17.6-10.2 33.4-25.9 41.1-69.4 33.8-117.3 105.8-117.3 189v225.5h415.4v-225.5c0-83.2-48-155.2-117.4-189-15.7-7.7-25.9-23.5-25.9-41.1v-2.8c0-17.6 10.2-33.4 25.9-41.1 69.4-33.9 117.4-105.8 117.4-189.1z"/>
					</g>
					<g id="&lt;Group&gt;">
						<path id="&lt;Path&gt;" fill-rule="evenodd" class="s9" d="m1142.6 1382.6c28.3 56.6 86.2 95.6 153 95.6h1.1c66.9-0.1 160.2-60.8 153.6-142.6z"/>
					</g>
					<g id="&lt;Group&gt;">
						<path id="&lt;Path&gt;" fill-rule="evenodd" class="s10" d="m1468.1 1934v-28.4c0-95.7-76.9-173.5-171.4-173.5h-1.1c-94.5 0-171.3 77.8-171.3 173.5v28.4z"/>
					</g>
					<g id="&lt;Group&gt;">
						<path id="&lt;Path&gt;" fill-rule="evenodd" class="s11" d="m1311.3 1441.9v304.7h-30.3v-304.7z"/>
					</g>
					<g id="&lt;Group&gt;">
						<path id="&lt;Path&gt;" fill-rule="evenodd" class="s12" d="m1532.4 1159.6h-472.5c-11.9 0-21.6-9.7-21.6-21.7v-36.4c0-12 9.7-21.7 21.6-21.7h472.5c11.9 0 21.6 9.7 21.6 21.7v36.4c0 12-9.7 21.7-21.6 21.7z"/>
					</g>
					<g id="&lt;Group&gt;">
						<path id="&lt;Path&gt;" fill-rule="evenodd" class="s13" d="m1059.9 1912.8h472.5c11.9 0 21.6 9.7 21.6 21.7v36.4c0 12-9.7 21.7-21.6 21.7h-472.5c-11.9 0-21.6-9.7-21.6-21.7v-36.4c0-12 9.7-21.7 21.6-21.7z"/>
					</g>
				</g>
				<g id="&lt;Group&gt;">
					<path id="&lt;Path&gt;" fill-rule="evenodd" class="s14" d="m809 1967.7v-21.1l27.6-8.9v30z"/>
					<path id="&lt;Path&gt;" fill-rule="evenodd" class="s15" d="m786.8 2104.4l11.1 111.1-48.7 168.9h18.8l73.6-151.3c4.7-9.3 6.8-19.7 6.2-30.2l-3.4-55.1z"/>
					<path id="&lt;Path&gt;" fill-rule="evenodd" class="s16" d="m786.8 2104.4c0 0 18.8 63.4 67.5 106.7l-7.7 173.3h18.8l32.9-142.3c2.4-10.2 2.2-20.7-0.6-30.7l-29-107z"/>
					<path id="&lt;Path&gt;" fill-rule="evenodd" class="s17" d="m786.8 2104.4c0 0-7.7-107.8 12.2-131.1 19.9-23.3 53.1-11.1 84.1-20l19.9 33.3-35.4 13.4 1.1 104.4z"/>
					<path id="&lt;Path&gt;" fill-rule="evenodd" class="s18" d="m857.7 1957l4.4-68.2 12.1-4.4 2.3 70.5z"/>
					<path id="&lt;Path&gt;" fill-rule="evenodd" class="s19" d="m832.7 1891.5l94.6-62.7c0 0-2.2 25.6 14.4 32.3l-106.3 35.9c-1.2 0.4-2.6 0-3.4-1.1-1.1-1.4-0.8-3.5 0.7-4.4z"/>
					<path id="&lt;Path&gt;" fill-rule="evenodd" class="s20" d="m927.3 1828.8c0 0-3.3 20 14.4 34.5 0 0 6.7-27.8-14.4-34.5z"/>
					<path id="&lt;Path&gt;" fill-rule="evenodd" class="s21" d="m859.7 1873.6c0 0 2.4 3 11.2-0.3 8.9-3.4 5.6-10.8 5.6-10.8 0 0-13.6-5.2-16.8 11.1z"/>
					<path id="&lt;Path&gt;" fill-rule="evenodd" class="s18" d="m844.4 1935.5c0 0-11.1 20-39.9 10-28.7-10-1.1-56.7 20-54.4 0 0 21 22.2 19.9 44.4z"/>
					<path id="&lt;Path&gt;" fill-rule="evenodd" class="s18" d="m844.4 1935.5c-2.2 12.2-27.7 21.1-45.4 6.7-17.7-14.5-12.2-51.1-2.2-52.3"/>
					<path id="&lt;Path&gt;" fill-rule="evenodd" class="s22" d="m820 1950c0 0-54.2-3.4-42-34.5 0 0-10-25.6 19.9-37.8 29.9-12.2 32.1 6.7 32.1 6.7 0 0-4.4 20-18.8 21.1l10.5 15c0 0-14.4-5.5-15.5 2.2-1.1 7.8 13.8 27.3 13.8 27.3z"/>
					<path id="&lt;Path&gt;" fill-rule="evenodd" class="s23" d="m846.6 2384.4l-3.2 10.4c-1.2 3.7 1.6 7.4 5.4 7.4h47.6c0 0 1.1-8.9-10-11.1-11.1-2.2-21-6.7-21-6.7z"/>
					<path id="&lt;Path&gt;" fill-rule="evenodd" class="s24" d="m749.2 2384.4l-3.2 10.4c-1.1 3.7 1.6 7.4 5.5 7.4h47.5c0 0 1.1-8.9-10-11.1-11-2.2-21-6.7-21-6.7z"/>
					<path id="&lt;Path&gt;" fill-rule="evenodd" class="s18" d="m883.1 1953.3l24.3-8.9-3.3-61.1c0 0-6.6-17.8-8.8-26.7-2.3-8.9 21-4.4 22.1 3.3 1.1 7.8 0 26.7 0 26.7l10.7 60.9c1.5 8.7-2.8 17.5-10.6 21.6l-18.7 10z"/>
				</g>
				<g id="&lt;Group&gt;">
					<g id="&lt;Group&gt;">
						<g id="&lt;Group&gt;">
							<path id="&lt;Path&gt;" fill-rule="evenodd" class="s25" d="m2052.8 1958.8c34.3-35.1 59.8 9.5 56.3 54.2-3.6 44.7-43.9 204.1-31.6 258.3 1 4.1 1.6 7.3 1.8 9.8h-7.3q-1-1.4-2-3.1c-38.7-66.5-64.4-270.9-17.2-319.2z"/>
							<path id="&lt;Path&gt;" fill-rule="evenodd" class="s26" d="m2073.1 2281.1c-43.6-124.3 3-313.7 3.1-314.3 0.3-1.1 1.3-1.7 2.4-1.4 1 0.2 1.7 1.3 1.4 2.3-0.1 0.7-46.7 190.4-2.8 313.4z"/>
						</g>
						<g id="&lt;Group&gt;">
							<path id="&lt;Path&gt;" fill-rule="evenodd" class="s27" d="m2137.4 2036.1c36.2-19.2 45.3 22.7 31.2 57.4-13.2 32.4-76.9 136.3-88.5 187.6h-11.5c-7.8-70.7 22.3-220.3 68.8-245z"/>
							<path id="&lt;Path&gt;" fill-rule="evenodd" class="s28" d="m2072.6 2281.1c4.8-106.9 81.2-232.3 81.4-232.7 0.5-0.8 1.5-1 2.3-0.6 0.8 0.5 1 1.5 0.5 2.3-0.2 0.4-76.2 125.2-80.9 231z"/>
						</g>
						<g id="&lt;Group&gt;">
							<path id="&lt;Path&gt;" fill-rule="evenodd" class="s29" d="m1984.7 2084.6c-35-15.4-40.6 24.4-25 55.7 12 24.2 59.8 91.6 84 140.8h21.4c-6.2-71-40.8-179.1-80.4-196.5z"/>
							<path id="&lt;Path&gt;" fill-rule="evenodd" class="s30" d="m2057.4 2281.1c-20.9-91.3-87.1-183.5-87.3-183.9-0.5-0.7-1.5-0.8-2.2-0.3-0.6 0.5-0.8 1.4-0.3 2.1 0.2 0.4 65.8 91.7 86.7 182.1z"/>
						</g>
					</g>
					<g id="&lt;Group&gt;">
						<path id="&lt;Path&gt;" fill-rule="evenodd" class="s31" d="m1980.6 2244.8l32.3 124.5h98.4l29.7-124.5z"/>
						<path id="&lt;Path&gt;" fill-rule="evenodd" class="s32" d="m2142.9 2249.7h-165.3c-2.6 0-4.8-2.2-4.8-4.9 0-2.7 2.2-4.8 4.8-4.8h165.3c2.7 0 4.9 2.1 4.9 4.8 0 2.7-2.2 4.9-4.9 4.9z"/>
					</g>
				</g>
				<path id="&lt;Path&gt;" fill-rule="evenodd" class="s33" d="m1160.4 2394.5c0 0 16.6-46.3 64.6-27.8 0 0-11.1-139.1 81.3-144.6 92.3-5.6 86.7 114.9 86.7 114.9 0 0 18.5-24.1 48-14.8 29.6 9.3 25.9 46.4 25.9 46.4 0 0 34.5-40.8 66.4-31.6 32 9.3 9.3 40.8 9.3 40.8 0 0 66.4-22.2 81.2 16.7z"/>
				<g id="&lt;Group&gt;">
					<path id="&lt;Path&gt;" fill-rule="evenodd" class="s34" d="m1557.5 486.1l-184.9-95.1 153.3 113.2-90.2 58.9-63.1-172.1 261.8 54.3z"/>
					<path id="&lt;Path&gt;" fill-rule="evenodd" class="s35" d="m1525.9 504.2l17.7 58.9 13.9-77-184.9-95.1z"/>
					<path id="&lt;Path&gt;" fill-rule="evenodd" class="s36" d="m1525.9 504.2l18 58.9-53.4-35.8z"/>
				</g>
				<g id="&lt;Group&gt;">
					<g id="&lt;Group&gt;">
						<path id="&lt;Path&gt;" fill-rule="evenodd" class="s37" d="m261.3 1515.4c-2.4 16.2-17.4 27.4-33.6 24.9-16.1-2.4-27.3-17.5-24.9-33.7 2.4-16.2 17.5-27.4 33.6-25 16.2 2.4 27.3 17.5 24.9 33.8z"/>
					</g>
					<g id="&lt;Group&gt;">
						<path id="&lt;Path&gt;" fill-rule="evenodd" class="s38" d="m227.2 1526q-0.5-0.3-0.9-0.7l-9.8-13c-1-1.4-0.8-3.3 0.6-4.4 1.4-1 3.3-0.8 4.4 0.6l7.7 10.1 15.9-16c1.2-1.2 3.2-1.2 4.5 0 1.2 1.2 1.2 3.2-0.1 4.4l-18.4 18.6c-0.7 0.6-1.6 1-2.5 0.9q-0.8-0.1-1.4-0.5z"/>
					</g>
				</g>
				<g id="&lt;Group&gt;">
					<g id="&lt;Group&gt;">
						<path id="&lt;Path&gt;" fill-rule="evenodd" class="s39" d="m335.6 889.5c-3 20.5-22.1 34.6-42.5 31.6-20.4-3.1-34.5-22.2-31.5-42.7 3.1-20.6 22.1-34.7 42.5-31.7 20.5 3.1 34.6 22.2 31.5 42.8z"/>
					</g>
					<g id="&lt;Group&gt;">
						<path id="&lt;Path&gt;" fill-rule="evenodd" class="s38" d="m292.4 903q-0.6-0.4-1-1l-12.5-16.4c-1.3-1.7-1-4.2 0.8-5.6 1.7-1.3 4.2-1 5.5 0.8l9.7 12.7 20.2-20.2c1.6-1.6 4.1-1.6 5.6 0 1.6 1.6 1.6 4.1 0 5.6l-23.4 23.5c-0.8 0.8-1.9 1.2-3 1.2q-1-0.1-1.9-0.6z"/>
					</g>
				</g>
				<g id="&lt;Group&gt;">
					<g id="&lt;Group&gt;">
						<path id="&lt;Path&gt;" fill-rule="evenodd" class="s40" d="m1537 81.1c-2.4 16.2-17.5 27.4-33.6 25-16.2-2.5-27.3-17.6-24.9-33.8 2.4-16.2 17.4-27.4 33.6-25 16.1 2.5 27.3 17.6 24.9 33.8z"/>
					</g>
					<g id="&lt;Group&gt;">
						<path id="&lt;Path&gt;" fill-rule="evenodd" class="s38" d="m1502.8 91.8q-0.4-0.3-0.8-0.8l-9.8-12.9c-1.1-1.4-0.8-3.4 0.5-4.5 1.4-1 3.4-0.8 4.4 0.6l7.7 10.1 16-16c1.2-1.2 3.2-1.2 4.4 0 1.2 1.2 1.2 3.2 0 4.5l-18.5 18.5c-0.6 0.7-1.5 1-2.4 0.9q-0.8 0-1.5-0.4z"/>
					</g>
				</g>
				<g id="&lt;Group&gt;">
					<g id="&lt;Group&gt;">
						<path id="&lt;Path&gt;" fill-rule="evenodd" class="s41" d="m625.9 111.1c-2.4 16.3-17.4 27.4-33.6 25-16.1-2.4-27.3-17.5-24.9-33.7 2.5-16.3 17.5-27.5 33.7-25 16.1 2.4 27.2 17.5 24.8 33.7z"/>
					</g>
					<g id="&lt;Group&gt;">
						<path id="&lt;Path&gt;" fill-rule="evenodd" class="s38" d="m591.8 121.8q-0.5-0.3-0.8-0.8l-9.9-12.9c-1-1.4-0.8-3.4 0.6-4.4 1.4-1.1 3.4-0.8 4.4 0.6l7.7 10 15.9-15.9c1.2-1.3 3.2-1.3 4.5 0 1.2 1.2 1.2 3.2 0 4.4l-18.5 18.6c-0.7 0.6-1.6 0.9-2.5 0.9q-0.7-0.1-1.4-0.5z"/>
					</g>
				</g>
				<g id="&lt;Group&gt;">
					<g id="&lt;Group&gt;">
						<path id="&lt;Path&gt;" fill-rule="evenodd" class="s42" d="m2221.8 1617.6c-2.9 19.5-21 33-40.4 30.1-19.4-3-32.8-21.1-29.9-40.6 2.9-19.5 21-33 40.4-30.1 19.4 2.9 32.8 21.1 29.9 40.6z"/>
					</g>
					<g id="&lt;Group&gt;">
						<path id="&lt;Path&gt;" fill-rule="evenodd" class="s38" d="m2180.8 1630.5q-0.6-0.4-1-1l-11.9-15.5c-1.2-1.7-0.9-4.1 0.7-5.3 1.7-1.3 4.1-1 5.3 0.7l9.3 12.1 19.1-19.2c1.5-1.5 3.9-1.5 5.4 0 1.4 1.4 1.4 3.8 0 5.3l-22.3 22.3c-0.7 0.8-1.8 1.2-2.9 1.1q-0.9 0-1.7-0.5z"/>
					</g>
				</g>
				<g id="&lt;Group&gt;">
					<g id="&lt;Group&gt;">
						<path id="&lt;Path&gt;" fill-rule="evenodd" class="s43" d="m2180.6 929c-3.1 21.2-22.8 35.8-43.9 32.6-21.1-3.1-35.7-22.9-32.5-44.1 3.1-21.2 22.8-35.8 43.9-32.7 21.1 3.2 35.7 23 32.5 44.2z"/>
					</g>
					<g id="&lt;Group&gt;">
						<path id="&lt;Path&gt;" fill-rule="evenodd" class="s38" d="m2136 942.9q-0.6-0.4-1.1-1l-12.8-16.9c-1.4-1.8-1.1-4.4 0.7-5.8 1.8-1.4 4.4-1 5.8 0.8l10 13.2 20.9-20.9c1.6-1.6 4.1-1.6 5.8 0 1.6 1.6 1.6 4.2 0 5.8l-24.2 24.2c-0.8 0.9-2 1.3-3.2 1.2q-1 0-1.9-0.6z"/>
					</g>
				</g>
				<g id="&lt;Group&gt;">
					<g id="&lt;Group&gt;">
						<g id="&lt;Group&gt;">
							<path id="&lt;Path&gt;" fill-rule="evenodd" class="s44" d="m550.8 1210c-4.3 0-7.8-3.6-7.8-7.9v-55.8c0-4.4 3.5-7.9 7.8-7.9 4.4 0 7.9 3.5 7.9 7.9v55.8c0 4.3-3.5 7.9-7.9 7.9z"/>
						</g>
					</g>
					<g id="&lt;Group&gt;">
						<g id="&lt;Group&gt;">
							<path id="&lt;Path&gt;" fill-rule="evenodd" class="s45" d="m578.6 1182.1h-55.5c-4.4 0-7.9-3.6-7.9-7.9 0-4.4 3.5-7.9 7.9-7.9h55.5c4.4 0 7.9 3.5 7.9 7.9 0 4.3-3.5 7.9-7.9 7.9z"/>
						</g>
					</g>
				</g>
				<g id="&lt;Group&gt;">
					<g id="&lt;Group&gt;">
						<g id="&lt;Group&gt;">
							<path id="&lt;Path&gt;" fill-rule="evenodd" class="s46" d="m1965.3 329.3c-3.3 0-6-2.8-6-6.1v-42.9c0-3.4 2.7-6.1 6-6.1 3.4 0 6.1 2.7 6.1 6.1v42.9c0 3.3-2.7 6.1-6.1 6.1z"/>
						</g>
					</g>
					<g id="&lt;Group&gt;">
						<g id="&lt;Group&gt;">
							<path id="&lt;Path&gt;" fill-rule="evenodd" class="s47" d="m1986.7 307.8h-42.7c-3.4 0-6.1-2.7-6.1-6.1 0-3.3 2.7-6.1 6.1-6.1h42.7c3.4 0 6.1 2.8 6.1 6.1 0 3.4-2.7 6.1-6.1 6.1z"/>
						</g>
					</g>
				</g>
				<g id="&lt;Group&gt;">
					<g id="&lt;Group&gt;">
						<g id="&lt;Group&gt;">
							<path id="&lt;Path&gt;" fill-rule="evenodd" class="s48" d="m2346.7 1225.6c-3.3 0-6-2.8-6-6.1v-43c0-3.3 2.7-6 6-6 3.4 0 6.1 2.7 6.1 6v43c0 3.3-2.7 6.1-6.1 6.1z"/>
						</g>
					</g>
					<g id="&lt;Group&gt;">
						<g id="&lt;Group&gt;">
							<path id="&lt;Path&gt;" fill-rule="evenodd" class="s49" d="m2368.1 1204.1h-42.8c-3.3 0-6-2.7-6-6.1 0-3.4 2.7-6.1 6-6.1h42.8c3.3 0 6 2.7 6 6.1 0 3.4-2.7 6.1-6 6.1z"/>
						</g>
					</g>
				</g>
				<g id="&lt;Group&gt;">
					<g id="&lt;Group&gt;">
						<g id="&lt;Group&gt;">
							<path id="&lt;Path&gt;" fill-rule="evenodd" class="s50" d="m414.9 510.8c-3.3 0-6-2.7-6-6.1v-42.9c0-3.4 2.7-6.1 6-6.1 3.4 0 6.1 2.7 6.1 6.1v42.9c0 3.4-2.7 6.1-6.1 6.1z"/>
						</g>
					</g>
					<g id="&lt;Group&gt;">
						<g id="&lt;Group&gt;">
							<path id="&lt;Path&gt;" fill-rule="evenodd" class="s51" d="m436.3 489.3h-42.7c-3.4 0-6.1-2.7-6.1-6.1 0-3.3 2.7-6.1 6.1-6.1h42.7c3.4 0 6.1 2.8 6.1 6.1 0 3.4-2.7 6.1-6.1 6.1z"/>
						</g>
					</g>
				</g>
				<g id="&lt;Group&gt;">
					<g id="&lt;Group&gt;">
						<g id="&lt;Group&gt;">
							<path id="&lt;Path&gt;" fill-rule="evenodd" class="s52" d="m127.4 2213.2c-3.3 0-6-2.8-6-6.1v-42.9c0-3.4 2.7-6.1 6-6.1 3.4 0 6.1 2.7 6.1 6.1v42.9c0 3.3-2.7 6.1-6.1 6.1z"/>
						</g>
					</g>
					<g id="&lt;Group&gt;">
						<g id="&lt;Group&gt;">
							<path id="&lt;Path&gt;" fill-rule="evenodd" class="s53" d="m148.8 2191.7h-42.7c-3.4 0-6.1-2.7-6.1-6.1 0-3.3 2.7-6.1 6.1-6.1h42.7c3.4 0 6.1 2.8 6.1 6.1 0 3.4-2.7 6.1-6.1 6.1z"/>
						</g>
					</g>
				</g>
				<g id="&lt;Group&gt;">
					<g id="&lt;Group&gt;">
						<g id="&lt;Group&gt;">
							<path id="&lt;Path&gt;" fill-rule="evenodd" class="s54" d="m2356.3 521.3c-4.2 0-7.5-3.4-7.5-7.5v-52.8c0-4.1 3.3-7.5 7.5-7.5 4.1 0 7.4 3.4 7.4 7.5v52.8c0 4.1-3.3 7.5-7.4 7.5z"/>
						</g>
					</g>
					<g id="&lt;Group&gt;">
						<g id="&lt;Group&gt;">
							<path id="&lt;Path&gt;" fill-rule="evenodd" class="s55" d="m2382.5 494.9h-52.5c-4.1 0-7.5-3.4-7.5-7.5 0-4.1 3.4-7.5 7.5-7.5h52.5c4.2 0 7.5 3.4 7.5 7.5 0 4.1-3.3 7.5-7.5 7.5z"/>
						</g>
					</g>
				</g>
				<g id="&lt;Group&gt;">
					<g id="&lt;Group&gt;">
						<g id="&lt;Group&gt;">
							<path id="&lt;Path&gt;" fill-rule="evenodd" class="s56" d="m1987.8 1891.5c-3.4 0-6.1-2.7-6.1-6.1v-42.9c0-3.4 2.7-6.1 6.1-6.1 3.3 0 6 2.7 6 6.1v42.9c0 3.4-2.7 6.1-6 6.1z"/>
						</g>
					</g>
					<g id="&lt;Group&gt;">
						<g id="&lt;Group&gt;">
							<path id="&lt;Path&gt;" fill-rule="evenodd" class="s57" d="m2009.2 1870h-42.8c-3.3 0-6.1-2.7-6.1-6 0-3.4 2.8-6.1 6.1-6.1h42.8c3.3 0 6 2.7 6 6.1 0 3.3-2.7 6-6 6z"/>
						</g>
					</g>
				</g>
				<g id="&lt;Group&gt;">
					<g id="&lt;Group&gt;">
						<g id="&lt;Group&gt;">
							<path id="&lt;Path&gt;" fill-rule="evenodd" class="s58" d="m1029.3 290.7c-4.1 0-7.5-3.3-7.5-7.5v-53.2c0-4.1 3.4-7.5 7.5-7.5 4.2 0 7.5 3.4 7.5 7.5v53.2c0 4.2-3.3 7.5-7.5 7.5z"/>
						</g>
					</g>
					<g id="&lt;Group&gt;">
						<g id="&lt;Group&gt;">
							<path id="&lt;Path&gt;" fill-rule="evenodd" class="s59" d="m1055.8 264.1h-53c-4.1 0-7.5-3.3-7.5-7.5 0-4.2 3.4-7.5 7.5-7.5h53c4.2 0 7.5 3.3 7.5 7.5 0 4.2-3.3 7.5-7.5 7.5z"/>
						</g>
					</g>
				</g>
			</g>
		</g>
	</g>
</svg>