<svg version="1.0" xmlns="http://www.w3.org/2000/svg"
 width="100%" viewBox="0 0 810.000000 810.000000"
 preserveAspectRatio="xMidYMid meet">

<g transform="translate(0.000000,810.000000) scale(0.100000,-0.100000)"
fill="#226979" stroke="none">
<path d="M3750 8030 c-1894 -5 -1906 -6 -2020 -27 -165 -31 -296 -67 -455
-127 -35 -13 -160 -76 -235 -117 -237 -132 -522 -402 -664 -630 -23 -36 -47
-74 -53 -85 -15 -22 -105 -205 -123 -249 -48 -117 -102 -319 -127 -475 -17
-108 -18 -241 -18 -2290 l0 -2175 22 -125 c12 -69 29 -145 38 -169 8 -24 15
-53 15 -65 1 -11 9 -39 20 -61 11 -22 20 -49 20 -60 0 -11 9 -38 20 -60 11
-22 19 -44 20 -48 0 -19 106 -219 155 -293 142 -219 301 -392 477 -521 131
-97 165 -118 313 -191 139 -68 175 -84 215 -93 19 -4 55 -14 80 -22 142 -47
146 -48 415 -87 123 -18 230 -19 2135 -18 1103 0 2050 4 2106 9 142 12 361 45
425 64 141 42 227 70 259 84 53 23 232 110 255 124 153 95 344 246 441 348 72
76 264 335 264 356 0 2 16 31 34 63 19 33 49 92 66 132 17 40 35 82 40 93 56
123 107 340 131 555 16 146 15 4205 -1 4334 -21 168 -39 276 -56 334 -52 177
-113 342 -144 392 -5 8 -18 33 -29 55 -11 22 -26 49 -33 60 -155 239 -295 399
-473 541 -151 121 -198 151 -360 233 -219 110 -487 183 -755 205 -127 10 -451
11 -2420 6z m2363 -1799 c7 -7 7 -23 -1 -48 -6 -21 -18 -67 -27 -103 -55 -220
-53 -216 -120 -225 -64 -8 -210 -5 -265 5 -24 4 -43 3 -46 -2 -4 -6 -19 -60
-34 -122 -63 -250 -101 -391 -108 -398 -4 -4 -126 -8 -272 -9 l-265 -1 -3 23
c-2 13 1 39 6 58 5 20 17 65 26 101 9 36 23 90 31 120 7 30 21 84 30 120 9 36
28 80 41 98 l25 32 248 0 249 0 21 58 c11 31 24 77 27 102 4 25 10 50 14 55 4
6 13 35 19 65 19 87 14 85 217 83 104 -1 181 -6 187 -12z m-1905 -914 c3 -27
-52 -266 -69 -298 -10 -21 0 -59 16 -59 7 0 15 7 19 15 4 13 32 15 168 13 90
0 147 -3 128 -5 -56 -7 -61 -23 -7 -23 35 0 47 4 47 15 0 10 10 15 31 15 26 0
29 -2 20 -14 -10 -12 -6 -13 28 -9 32 4 42 2 47 -12 8 -21 -25 -176 -77 -359
-43 -151 -42 -162 15 -151 16 3 178 5 361 5 l332 0 6 68 c3 37 13 84 21 104 9
21 16 48 16 60 0 13 11 46 24 75 31 65 39 68 224 68 203 0 200 8 110 -300 -12
-38 -26 -76 -33 -83 -14 -15 -155 -25 -155 -11 0 5 -14 9 -31 9 -16 0 -28 -4
-25 -9 3 -5 -6 -9 -22 -8 -15 1 -51 0 -80 -1 -62 -2 -57 6 -101 -172 -47 -191
-61 -243 -71 -265 -5 -11 -23 -78 -40 -150 -25 -103 -37 -135 -56 -153 -14
-12 -30 -20 -35 -16 -5 3 -165 5 -356 4 -369 -1 -358 1 -369 -50 -14 -68 -47
-193 -70 -265 -23 -77 -52 -187 -109 -415 -14 -58 -37 -143 -50 -190 -14 -47
-27 -97 -31 -112 -3 -15 -11 -32 -18 -37 -8 -7 -206 -11 -548 -12 l-535 -1
-31 -126 c-17 -70 -47 -185 -66 -257 -19 -71 -44 -166 -55 -210 -32 -120 -41
-144 -59 -153 -28 -14 -739 -9 -753 5 -10 10 -9 24 4 64 10 28 17 60 17 70 0
10 8 42 19 71 10 29 23 76 29 103 18 87 31 134 97 357 16 52 33 89 42 92 9 4
131 6 272 6 505 -1 468 -3 474 23 7 28 39 147 67 252 12 44 28 107 36 140 8
33 21 80 28 105 37 118 56 186 56 198 0 8 8 44 19 80 51 180 62 232 57 249 -5
17 -20 18 -238 15 -292 -4 -281 -9 -248 109 13 46 29 103 37 127 7 23 13 50
13 60 0 17 28 115 57 198 22 64 38 68 291 62 140 -3 225 -9 240 -17 23 -12 28
-40 13 -69 -5 -10 -16 -49 -25 -87 -8 -39 -31 -130 -50 -203 -27 -101 -33
-138 -26 -153 10 -18 28 -19 531 -19 479 0 520 1 526 17 4 9 1 19 -5 21 -7 2
-8 9 -3 20 9 16 22 63 70 252 21 83 31 118 88 322 14 54 23 101 19 105 -3 4
-100 8 -214 8 -287 2 -279 2 -292 26 -9 16 -8 24 4 38 9 10 13 20 10 24 -5 5
10 66 68 272 11 39 24 84 30 100 25 73 32 69 -162 75 l-175 5 3 40 c2 22 12
72 22 111 11 38 20 80 20 92 0 22 34 105 53 130 7 9 53 12 186 10 l176 -3 3
-28z"/>
<path d="M4340 4969 l-45 -6 58 -1 c31 -1 57 0 57 2 0 9 -28 11 -70 5z"/>
<path d="M4218 4963 c7 -3 16 -2 19 1 4 3 -2 6 -13 5 -11 0 -14 -3 -6 -6z"/>
</g>
</svg>
