<?xml version="1.0" standalone="no"?>
<!DOCTYPE svg PUBLIC "-//W3C//DTD SVG 20010904//EN"
 "http://www.w3.org/TR/2001/REC-SVG-20010904/DTD/svg10.dtd">
<svg version="1.0" xmlns="http://www.w3.org/2000/svg"
 width="100%"  viewBox="0 0 1024.000000 1024.000000"
 preserveAspectRatio="xMidYMid meet">

<g transform="translate(0.000000,1024.000000) scale(0.100000,-0.100000)"
fill="#000000" stroke="none">
<path d="M0 5120 l0 -5120 5120 0 5120 0 0 5120 0 5120 -5120 0 -5120 0 0
-5120z m6030 2762 c-77 -149 -140 -274 -140 -277 0 -4 -74 -147 -164 -318 -90
-172 -222 -428 -294 -569 l-131 -258 192 0 c178 0 196 -2 249 -24 212 -87 404
-332 464 -591 27 -115 25 -319 -4 -438 -40 -163 -119 -304 -236 -426 -124
-128 -274 -218 -449 -268 -91 -26 -98 -26 -461 -30 l-368 -5 83 110 84 109
270 6 c208 4 284 9 330 22 332 93 545 367 547 705 1 223 -83 408 -248 544
l-68 56 -488 2 -488 3 147 185 c314 395 463 592 1076 1420 43 58 113 153 155
212 42 58 78 105 80 103 2 -1 -60 -124 -138 -273z m-445 -349 c-10 -16 -46
-65 -79 -110 l-61 -83 -227 0 c-125 0 -261 -5 -303 -11 -279 -38 -500 -216
-595 -478 -115 -314 -10 -659 252 -834 l56 -37 471 0 c259 0 471 -3 471 -6 0
-6 -44 -65 -156 -209 -197 -253 -607 -789 -908 -1190 -187 -247 -343 -454
-348 -460 -5 -5 87 181 204 415 198 396 380 764 529 1075 35 72 65 133 67 137
1 3 -75 8 -170 10 l-173 3 -77 37 c-102 48 -158 88 -230 161 -110 111 -186
246 -229 407 -20 72 -23 108 -23 240 1 185 18 261 93 415 108 222 282 386 506
476 153 61 211 68 599 68 l348 1 -17 -27z m930 -3 c28 -13 73 -48 102 -77 67
-68 95 -140 96 -245 1 -69 -3 -84 -37 -152 -40 -83 -89 -130 -172 -168 -48
-23 -57 -23 -470 -26 l-421 -3 56 111 56 110 236 0 c191 0 244 -3 283 -16 103
-35 209 5 241 90 50 131 -73 241 -225 202 -69 -18 -92 -19 -262 -17 l-137 1
52 110 52 110 250 -2 c242 -3 252 -4 300 -28z m-1286 -449 c16 -11 17 -10 -71
-128 l-68 -93 -74 0 c-61 0 -83 -5 -127 -28 -100 -52 -158 -165 -145 -286 3
-34 8 -70 12 -82 4 -15 -12 -42 -61 -105 -36 -46 -70 -85 -75 -87 -5 -2 -21
18 -35 43 -100 169 -87 415 30 570 25 32 64 75 87 94 53 42 150 87 214 99 63
12 295 14 313 3z m468 -1199 c39 -71 63 -165 63 -252 0 -228 -166 -424 -390
-459 -70 -12 -300 -15 -300 -5 0 4 34 53 76 109 l76 102 68 6 c38 3 86 15 107
26 52 26 109 91 122 138 14 50 14 132 0 172 -11 30 -8 35 61 126 40 52 76 95
79 95 4 0 21 -26 38 -58z m-1017 -502 c0 -5 -23 -56 -51 -112 l-51 -103 -267
2 c-149 2 -291 8 -323 14 -142 29 -238 -32 -238 -151 0 -100 66 -161 175 -161
30 0 67 7 85 16 27 14 67 17 226 18 107 0 196 -2 199 -5 3 -3 -18 -53 -47
-112 l-53 -106 -271 0 -271 0 -71 36 c-158 79 -226 247 -172 425 19 64 29 80
89 140 108 108 106 108 619 108 271 1 422 -3 422 -9z m12 -1819 l3 -399 110
100 c61 55 167 151 237 214 l127 115 65 -3 66 -3 -185 -168 c-128 -117 -183
-172 -178 -181 5 -8 100 -120 213 -251 113 -131 207 -241 208 -246 2 -5 -23
-9 -55 -9 l-59 0 -189 220 c-103 122 -191 223 -195 225 -4 3 -43 -27 -86 -66
l-79 -70 -5 -152 -5 -152 -47 -3 -48 -3 0 615 0 616 50 0 50 0 2 -399z m1777
353 c28 -36 27 -79 -4 -109 -72 -73 -178 28 -114 109 16 20 29 26 59 26 30 0
43 -6 59 -26z m-3218 -333 c61 -23 139 -76 139 -95 0 -7 -13 -25 -30 -41 l-30
-29 -27 26 c-111 104 -362 96 -418 -12 -21 -40 -19 -93 5 -122 26 -34 70 -50
224 -83 190 -40 255 -74 296 -156 24 -46 27 -143 6 -192 -19 -45 -93 -110
-152 -133 -76 -30 -288 -27 -367 4 -62 25 -157 95 -157 115 0 7 14 26 30 42
l30 29 33 -32 c81 -79 248 -113 372 -77 174 50 177 226 5 275 -19 5 -80 19
-135 31 -181 38 -251 75 -286 154 -62 135 31 278 204 315 65 14 195 4 258 -19z
m859 7 c119 -35 229 -131 283 -245 30 -65 32 -74 32 -188 0 -114 -2 -123 -32
-188 -42 -88 -118 -164 -208 -207 -60 -29 -83 -34 -162 -38 -152 -7 -255 31
-348 129 -79 83 -116 167 -123 277 -8 148 33 258 130 354 109 107 282 149 428
106z m1850 -24 c155 -74 250 -223 250 -391 l0 -53 -376 0 -377 0 5 -37 c14
-98 81 -189 176 -235 60 -30 75 -33 157 -33 76 0 99 4 145 26 31 14 72 40 92
58 36 31 38 32 67 17 45 -24 46 -35 10 -72 -89 -92 -188 -128 -332 -122 -89 3
-111 8 -170 35 -89 42 -168 121 -209 210 -26 55 -33 83 -36 154 -7 149 32 261
123 355 89 91 177 125 315 121 82 -2 104 -7 160 -33z m1290 0 c232 -110 324
-378 211 -609 -74 -150 -215 -235 -387 -235 -257 0 -444 183 -444 436 0 208
113 368 305 430 25 9 80 13 145 11 94 -2 112 -5 170 -33z m-790 -405 l0 -430
-47 3 -48 3 -3 415 c-1 228 0 421 3 427 2 8 23 13 50 13 l45 0 0 -431z m-2577
-763 c21 -8 47 -22 58 -32 33 -30 -1 -39 -51 -13 -47 25 -113 22 -156 -6 -38
-25 -67 -97 -59 -146 19 -109 158 -164 236 -93 15 14 21 14 34 4 20 -16 11
-28 -39 -51 -74 -34 -155 -22 -209 29 -42 39 -57 75 -57 132 0 89 39 148 117
175 48 18 78 18 126 1z m1549 4 c81 -23 128 -89 128 -181 0 -101 -63 -167
-168 -176 -111 -9 -195 68 -195 181 0 127 111 210 235 176z m953 -1 c74 -21
135 -107 135 -189 0 -32 -32 -100 -56 -122 -29 -26 -89 -48 -129 -48 -40 0
-100 22 -129 48 -28 26 -56 92 -56 137 0 49 35 121 71 148 46 33 104 42 164
26z m556 -1 c39 -13 89 -45 89 -58 0 -20 -33 -17 -66 5 -94 64 -218 -6 -216
-120 1 -103 81 -167 180 -144 41 9 92 58 92 89 0 18 -7 20 -59 20 -57 0 -84
11 -61 25 6 3 44 8 85 11 l75 5 0 -39 c0 -77 -67 -143 -154 -150 -130 -11
-218 95 -192 231 9 46 62 105 111 122 50 17 73 18 116 3z m-3941 -18 c0 -18
-7 -20 -60 -20 l-60 0 0 -155 c0 -141 -2 -155 -17 -155 -17 0 -18 13 -15 155
l3 155 -61 0 c-53 0 -60 2 -60 20 0 19 7 20 135 20 128 0 135 -1 135 -20z
m428 3 c-3 -14 -17 -17 -93 -17 l-90 -1 -3 -62 -3 -63 91 0 c73 0 90 -3 90
-15 0 -12 -17 -15 -90 -15 l-90 0 0 -65 0 -65 95 0 c78 0 95 -3 95 -15 0 -12
-19 -15 -112 -15 l-113 0 -2 175 -2 175 115 0 c103 0 115 -2 112 -17z m774
-60 l3 -78 104 0 104 0 -2 78 c-2 72 -1 77 18 77 20 0 21 -5 21 -175 0 -145
-2 -175 -14 -175 -10 0 -16 18 -21 63 -4 34 -5 69 -3 77 2 13 -14 15 -102 15
l-105 0 -3 -77 c-2 -60 -6 -78 -17 -78 -13 0 -15 28 -15 175 0 147 2 175 15
175 11 0 15 -18 17 -77z m632 -63 l106 -141 0 141 c0 133 1 140 20 140 19 0
20 -7 20 -175 0 -160 -1 -175 -17 -175 -11 1 -61 58 -125 142 l-108 141 0
-142 c0 -134 -1 -141 -20 -141 -19 0 -20 7 -20 175 0 226 0 226 144 35z m976
-20 l0 -160 85 0 c74 0 85 -2 85 -17 0 -16 -10 -18 -105 -15 l-105 3 0 175 c0
167 1 174 20 174 19 0 20 -7 20 -160z m1501 80 c29 -44 54 -80 55 -80 2 0 26
36 55 80 41 64 56 80 75 80 18 0 23 -4 17 -12 -4 -7 -36 -55 -70 -107 -62 -92
-63 -94 -63 -162 0 -55 -3 -69 -15 -69 -12 0 -15 15 -15 73 l0 72 -65 97 c-36
54 -65 100 -65 103 0 3 9 5 19 5 13 0 36 -27 72 -80z"/>
<path d="M3855 3486 c-126 -53 -207 -180 -207 -326 0 -143 65 -251 190 -312
60 -30 75 -33 157 -33 78 0 97 4 147 28 260 127 255 513 -7 633 -87 40 -197
44 -280 10z"/>
<path d="M5665 3486 c-77 -32 -155 -113 -184 -191 -35 -93 -63 -85 305 -85
l327 0 -6 36 c-15 91 -92 190 -182 234 -74 36 -182 38 -260 6z"/>
<path d="M6936 3486 c-180 -76 -262 -292 -180 -476 77 -171 284 -246 458 -167
75 35 121 80 158 155 30 61 33 74 33 162 0 77 -4 104 -23 144 -34 75 -84 129
-154 166 -55 30 -74 34 -148 37 -73 3 -93 0 -144 -21z"/>
<path d="M5314 2356 c-72 -31 -102 -123 -65 -199 29 -60 70 -81 146 -75 53 4
62 9 91 42 44 51 52 103 24 160 -35 72 -122 104 -196 72z"/>
<path d="M6275 2356 c-53 -24 -78 -60 -83 -119 -8 -97 46 -157 143 -157 86 0
145 57 145 141 0 54 -31 107 -74 128 -42 20 -97 23 -131 7z"/>
</g>
</svg>
