
<svg version="1.0" xmlns="http://www.w3.org/2000/svg"
 width="100%"  viewBox="0 0 621.000000 402.000000"
 preserveAspectRatio="xMidYMid meet">

<g transform="translate(0.000000,402.000000) scale(0.100000,-0.100000)"
fill="#226979" stroke="none">
<path d="M426 3798 c-14 -20 -16 -202 -16 -1744 0 -1657 1 -1722 18 -1738 17
-15 211 -16 2652 -16 1927 0 2637 3 2647 11 11 10 13 303 13 1744 0 1665 -1
1733 -18 1748 -17 16 -215 17 -2650 17 l-2631 0 -15 -22z m1920 -1284 c-3 -9
-9 -27 -12 -40 -5 -20 -12 -24 -45 -24 -37 0 -39 -2 -50 -42 -17 -68 -22 -73
-70 -76 -65 -3 -71 4 -50 68 l18 55 55 3 c55 3 56 3 62 37 7 34 8 35 53 35 37
0 44 -3 39 -16z m-396 -183 c0 -5 -4 -21 -10 -35 -10 -26 -9 -26 46 -26 54 0
56 -1 50 -22 -4 -13 -9 -38 -13 -56 l-6 -33 74 3 c73 3 73 3 83 36 8 29 13 32
47 32 41 0 46 -8 33 -57 -5 -19 -13 -23 -44 -23 -37 0 -38 -1 -53 -52 -9 -29
-18 -65 -22 -80 -5 -27 -7 -27 -87 -30 l-81 -3 -27 -100 c-14 -55 -29 -106
-34 -113 -5 -8 -40 -12 -116 -12 l-108 0 -11 -31 c-6 -18 -11 -40 -11 -50 0
-10 -5 -30 -12 -44 -11 -24 -15 -25 -90 -25 -89 0 -85 -5 -60 90 l17 65 81 3
81 3 30 109 30 110 -53 0 c-60 0 -61 1 -40 70 l13 45 58 3 c56 3 57 2 52 -20
-3 -13 -8 -38 -12 -55 l-7 -33 109 0 110 0 16 69 c10 38 17 72 17 75 0 3 -23
6 -51 6 l-51 0 7 33 c4 17 9 42 12 55 5 20 2 22 -32 22 -34 0 -37 2 -31 23 3
12 6 30 6 40 0 14 9 17 45 17 25 0 45 -4 45 -9z m1450 -128 l1 -118 48 53 48
52 66 0 c37 0 67 -2 67 -5 0 -2 -29 -35 -65 -72 -36 -37 -65 -71 -65 -74 0 -6
8 -16 109 -134 28 -33 51 -63 51 -67 0 -5 -29 -8 -64 -8 l-64 0 -52 64 c-64
79 -80 78 -80 -5 l0 -59 -55 0 -55 0 0 245 0 245 55 0 55 0 0 -117z m840 67
l0 -50 -55 0 -55 0 0 50 0 50 55 0 55 0 0 -50z m-1472 -115 c18 -20 32 -41 30
-47 -2 -6 -23 -17 -47 -24 -38 -11 -44 -11 -62 7 -10 10 -25 16 -34 13 -32
-13 -11 -36 51 -54 112 -33 144 -139 62 -200 -28 -20 -45 -24 -103 -24 -66 0
-73 2 -108 33 -49 45 -48 64 4 81 36 12 43 12 53 -2 16 -22 54 -32 71 -18 24
20 18 28 -36 47 -113 40 -153 127 -89 192 35 35 57 41 125 35 42 -3 55 -9 83
-39z m369 19 c47 -30 81 -76 94 -127 10 -41 9 -55 -6 -95 -53 -141 -233 -175
-334 -63 -32 35 -41 63 -41 123 0 84 62 165 141 181 41 9 117 -1 146 -19z
m850 0 c48 -28 76 -78 81 -145 l4 -58 -125 -3 c-121 -3 -125 -4 -112 -22 17
-22 102 -34 132 -18 16 9 26 5 52 -18 19 -15 31 -33 27 -39 -18 -28 -73 -45
-146 -45 -86 0 -129 21 -171 83 -35 50 -34 152 1 203 25 38 68 68 110 80 39
10 113 1 147 -18z m610 -10 c59 -45 78 -82 78 -155 0 -53 -5 -72 -25 -102 -90
-134 -298 -104 -347 49 -16 51 -16 57 0 108 19 60 68 111 115 122 15 3 32 7
37 10 26 10 112 -9 142 -32z m-357 -154 l0 -180 -55 0 -55 0 0 180 0 180 55 0
55 0 0 -180z"/>
<path d="M2989 2071 c-36 -37 -38 -79 -5 -117 49 -58 136 -24 136 53 0 40 -45
93 -80 93 -12 0 -35 -13 -51 -29z"/>
<path d="M3849 2081 c-13 -11 -21 -22 -18 -26 4 -3 35 -5 70 -3 l64 3 -22 23
c-28 27 -63 28 -94 3z"/>
<path d="M4460 2093 c-43 -16 -66 -97 -37 -134 15 -20 51 -39 72 -39 29 0 75
55 75 90 0 55 -60 101 -110 83z"/>
</g>
</svg>
